<svg xmlns="http://www.w3.org/2000/svg" xml:space="preserve" width="25mm" height="25mm" fill-rule="evenodd" clip-rule="evenodd" image-rendering="optimizeQuality" shape-rendering="geometricPrecision" text-rendering="geometricPrecision" viewBox="0 0 1.193 1.193"><defs><radialGradient id="a" cx=".565" cy=".573" r=".173" fx=".565" fy=".573" gradientUnits="userSpaceOnUse"><stop offset="0" stop-color="#ccc"/><stop offset=".129" stop-color="#aaa"/><stop offset=".29" stop-color="#888"/><stop offset=".439" stop-color="#666"/><stop offset=".749" stop-color="#333"/><stop offset="1"/></radialGradient></defs><path fill="#1e262e" d="M0 0h1.193v1.193H0z"/><path fill="#e66" d="M.073.073h1.12v1.12H.073z"/><path stroke="#000" stroke-width=".004" d="M.147.664.14.634.147.601h.455V.147l.03-.006.032.006v.455h.455l.004.031-.004.031H.664v.455l-.03.005-.032-.005V.664z"/><circle cx=".389" cy=".385" r=".049" stroke="#000" stroke-width=".004"/><path stroke="#000" stroke-width=".004" d="M.334.972.308.957.294.932.592.633.294.334.31.31.334.294l.299.298.299-.298.025.015.015.025-.298.299.298.299-.014.026-.026.014L.633.674z"/><circle cx=".636" cy=".288" r=".049" stroke="#000" stroke-width=".004"/><circle cx=".633" cy=".627" r=".339" fill="url(#a)"/><circle cx=".868" cy=".399" r=".049" stroke="#000" stroke-width=".004"/><circle cx=".397" cy=".868" r=".049" stroke="#000" stroke-width=".004"/><circle cx=".868" cy=".868" r=".049" stroke="#000" stroke-width=".004"/></svg>