<svg xmlns="http://www.w3.org/2000/svg" xml:space="preserve" width="25mm" height="25mm" fill-rule="evenodd" clip-rule="evenodd" image-rendering="optimizeQuality" shape-rendering="geometricPrecision" text-rendering="geometricPrecision" viewBox="0 0 1.066 1.066"><defs><radialGradient id="a" cx=".505" cy=".512" r=".155" fx=".505" fy=".512" gradientUnits="userSpaceOnUse"><stop offset="0" stop-color="#ccc"/><stop offset=".129" stop-color="#aaa"/><stop offset=".29" stop-color="#888"/><stop offset=".439" stop-color="#666"/><stop offset=".749" stop-color="#333"/><stop offset="1"/></radialGradient></defs><path fill="#1e262e" d="M0 0h1.066v1.066H0z"/><path fill="#464e56" d="M.065.065h1v1h-1z"/><path stroke="#000" stroke-width=".003" d="M.132.593.125.565.132.538h.406V.132L.565.126l.028.006v.406h.406l.004.027-.004.028H.593v.406l-.026.005-.03-.005V.593z"/><circle cx=".347" cy=".344" r=".044" stroke="#000" stroke-width=".003"/><path stroke="#000" stroke-width=".003" d="M.299.868.275.855.262.832.53.565.262.3.277.276.3.262.565.53.832.262l.023.014.013.023-.266.266.266.267-.012.024-.024.012L.565.602z"/><circle cx=".568" cy=".257" r=".044" stroke="#000" stroke-width=".003"/><circle cx=".565" cy=".56" r=".303" fill="url(#a)"/><circle cx=".775" cy=".356" r=".044" stroke="#000" stroke-width=".003"/><circle cx=".354" cy=".775" r=".044" stroke="#000" stroke-width=".003"/><circle cx=".775" cy=".775" r=".044" stroke="#000" stroke-width=".003"/></svg>