<svg xmlns="http://www.w3.org/2000/svg" xml:space="preserve" width="25mm" height="25mm" fill-rule="evenodd" clip-rule="evenodd" image-rendering="optimizeQuality" shape-rendering="geometricPrecision" text-rendering="geometricPrecision" viewBox="0 0 1.139 1.139"><path fill="#1e262e" d="M0 0h1.139v1.139H0z"/><path fill="#384048" d="M.07.07h1.07v1.07H.07z"/><path fill="#da2" d="M.96.72v.158C.96.94.903.944.825.944H.313C.238.944.248.908.248.863V.804h.459Q.746.802.746.776v-.09q0-.024-.04-.026H.249V.236l.71-.002v.038C.963.357.939.377.874.378H.459V.52L.825.519C.886.52.96.516.96.585z"/></svg>