<svg xmlns="http://www.w3.org/2000/svg" xml:space="preserve" width="51.997" height="99.479" fill-rule="evenodd" clip-rule="evenodd" image-rendering="optimizeQuality" shape-rendering="geometricPrecision" text-rendering="geometricPrecision" viewBox="0 0 .779 1.491"><path d="M0 0h.779v1.491H0z"/><path fill="#c00" d="m.027 0 .215.21H.54L.752 0z"/><path fill="#400000" d="m.027 1.49.215-.21H.54l.212.21z"/><path fill="#c00" d="m.779 1.47-.21-.215V.958l.21-.213zm0-.725L.569.53V.233L.778.02z"/><path fill="#400000" d="m0 1.47.21-.215V.958L0 .745zm0-.725L.21.53V.233L0 .02zM.027.74l.215.122H.54L.752.74.54.618H.242zh.677z"/></svg>