<svg xmlns="http://www.w3.org/2000/svg" xml:space="preserve" width="52.339" height="99.923" fill-rule="evenodd" clip-rule="evenodd" image-rendering="optimizeQuality" shape-rendering="geometricPrecision" text-rendering="geometricPrecision" viewBox="0 0 4.874 9.306"><path d="M0 0h4.874v9.306H0z"/><path fill="#c00" d="M.184.001 1.52 1.31h1.85L4.69 0zm0 9.304L1.52 7.996h1.85l1.32 1.31z"/><path fill="#400000" d="M4.873 9.159 3.565 7.823v-1.85l1.31-1.32z"/><path fill="#c00" d="M4.873 4.653 3.565 3.317v-1.85l1.31-1.32zM.001 9.159 1.31 7.823v-1.85L0 4.653z"/><path fill="#400000" d="M.001 4.653 1.31 3.317v-1.85L0 .147z"/><path fill="#c00" d="m.184 4.62 1.336.761h1.85l1.32-.76-1.32-.761H1.52zH4.39z"/></svg>