<svg xmlns="http://www.w3.org/2000/svg" xml:space="preserve" width="51.997" height="99.479" fill-rule="evenodd" clip-rule="evenodd" image-rendering="optimizeQuality" shape-rendering="geometricPrecision" text-rendering="geometricPrecision" viewBox="0 0 4.502 8.613"><path d="M0 0h4.502v8.613H0z"/><path fill="#c00" d="m.157 0 1.242 1.218h1.72L4.344 0zm0 8.612 1.242-1.217h1.72l1.226 1.218zM4.5 8.495 3.285 7.253v-1.72l1.218-1.227zm0-4.189L3.285 3.064v-1.72L4.502.119zM0 8.495l1.218-1.242v-1.72L0 4.306zm0-4.189 1.218-1.242v-1.72L0 .119z"/><path fill="#400000" d="m.157 4.277 1.242.706h1.72l1.226-.707-1.227-.707h-1.72zh3.909z"/></svg>