<svg xmlns="http://www.w3.org/2000/svg" xml:space="preserve" width="51.997" height="99.479" fill-rule="evenodd" clip-rule="evenodd" image-rendering="optimizeQuality" shape-rendering="geometricPrecision" text-rendering="geometricPrecision" viewBox="0 0 141.457 270.63"><path d="M0 0h141.457v270.63H0z"/><path fill="#400000" d="m4.919.028 39.03 38.234 54.033-.002L136.538 0zm0 270.574 39.03-38.234 54.033.002 38.556 38.26z"/><path fill="#c00" d="m141.429 266.935-38.234-39.03.002-54.033 38.26-38.556zm0-131.622-38.234-39.03.002-54.033 38.26-38.556z"/><path fill="#400000" d="m.028 266.935 38.234-39.03-.002-54.033L0 135.316zm0-131.622 38.234-39.03-.002-54.033L0 3.694zm4.891-.933 39.03 22.205 54.033-.002 38.552-22.216h.004l-.003-.001.003-.001h-.004l-38.552-22.216-54.033-.002-39.03 22.205 122.844.014z"/></svg>