<svg xmlns="http://www.w3.org/2000/svg" xml:space="preserve" width="51.997" height="99.479" fill-rule="evenodd" clip-rule="evenodd" image-rendering="optimizeQuality" shape-rendering="geometricPrecision" text-rendering="geometricPrecision" viewBox="0 0 .667 1.277"><path d="M0 0h.667v1.277H0z"/><path fill="red" d="m.023 0 .184.18h.255L.644 0zm0 1.277.184-.18h.255l.182.18z"/><g fill="red"><path d="m.667 1.26-.18-.185V.82l.18-.182z"/><path d="M.667.638.487.454V.2l.18-.182z"/></g><path fill="red" d="m0 1.26.18-.185V.82L0 .638zm0-.622L.18.454V.2L0 .017zM.023.634l.184.105h.255L.644.634.462.529H.207zh.58z"/></svg>