<svg xmlns="http://www.w3.org/2000/svg" xml:space="preserve" width="51.997" height="99.479" fill-rule="evenodd" clip-rule="evenodd" image-rendering="optimizeQuality" shape-rendering="geometricPrecision" text-rendering="geometricPrecision" viewBox="0 0 .521 .997"><path d="M0 0h.521v.997H0z"/><path fill="#600000" d="m.018 0 .144.141h.2L.502 0zm0 .997.144-.14h.2l.141.14zM.521.984.381.84v-.2L.52.5zm0-.485L.381.355v-.2L.52.015zM0 .984.141.84v-.2L0 .5zm0-.485L.141.355v-.2L0 .015z"/><path fill="red" d="m.018.495.144.082h.2l.14-.082L.361.413H.162zh.453z"/></svg>