<svg xmlns="http://www.w3.org/2000/svg" xml:space="preserve" width="51.997" height="99.479" fill-rule="evenodd" clip-rule="evenodd" image-rendering="optimizeQuality" shape-rendering="geometricPrecision" text-rendering="geometricPrecision" viewBox="0 0 .585 1.12"><path d="M0 0h.585v1.12H0z"/><path fill="red" d="m.02 0 .162.158h.223L.565 0zm0 1.12L.182.962h.223l.16.158zm.565-.015L.427.943V.72L.585.56zm0-.545L.427.398V.175l.158-.16z"/><path fill="#600000" d="M0 1.105.158.943V.72L0 .56z"/><path fill="red" d="M0 .56.158.398V.175L0 .015zM.02.556l.162.092h.223l.16-.092-.16-.092H.182zh.51z"/></svg>