<svg xmlns="http://www.w3.org/2000/svg" xml:space="preserve" width="51.997" height="99.479" fill-rule="evenodd" clip-rule="evenodd" image-rendering="optimizeQuality" shape-rendering="geometricPrecision" text-rendering="geometricPrecision" viewBox="0 0 .936 1.79"><path d="M0 0h.936v1.79H0z"/><path fill="red" d="M.033 0 .29.253h.357L.903 0zm0 1.79.258-.253h.357l.255.253zm.903-.024-.253-.258V1.15L.936.895z"/><path fill="#600000" d="M.936.895.683.637V.28L.936.024z"/><path fill="red" d="m0 1.766.253-.258V1.15L0 .895zm0-.871L.253.637V.28L0 .024zM.033.889l.258.147h.357L.903.889.648.742H.291zh.812z"/></svg>