<svg xmlns="http://www.w3.org/2000/svg" xml:space="preserve" width="51.997" height="99.479" fill-rule="evenodd" clip-rule="evenodd" image-rendering="optimizeQuality" shape-rendering="geometricPrecision" text-rendering="geometricPrecision" viewBox="0 0 1.566 2.995"><path d="M0 0h1.566v2.995H0z"/><path fill="#600000" d="m.054 0 .432.424h.599L1.51 0zm0 2.995.432-.423h.599l.426.423z"/><path fill="red" d="m1.565 2.955-.423-.432v-.598l.424-.427zm0-1.457-.423-.432V.468L1.566.04z"/><path fill="#600000" d="m0 2.955.424-.432v-.598L0 1.498z"/><path fill="red" d="m0 1.498.424-.432V.468L0 .04zm.054-.011.432.246h.599l.426-.246-.426-.246H.486zh1.36z"/></svg>