<svg xmlns="http://www.w3.org/2000/svg" xml:space="preserve" width="51.997" height="99.479" fill-rule="evenodd" clip-rule="evenodd" image-rendering="optimizeQuality" shape-rendering="geometricPrecision" text-rendering="geometricPrecision" viewBox="0 0 1.171 2.241"><path d="M0 0h1.171v2.241H0z"/><path fill="red" d="m.04 0 .324.317h.447L1.131 0zm0 2.241.324-.317h.447l.32.317zm1.131-.031-.316-.323V1.44l.316-.32z"/><path fill="#600000" d="M1.171 1.12.855.798V.35L1.17.03zM0 2.21l.317-.323V1.44L0 1.12z"/><path fill="red" d="M0 1.12.317.798V.35L0 .03zm.04-.007.324.184h.447l.32-.184L.81.929H.364zh1.017z"/></svg>