<svg xmlns="http://www.w3.org/2000/svg" xml:space="preserve" width="51.997" height="99.479" fill-rule="evenodd" clip-rule="evenodd" image-rendering="optimizeQuality" shape-rendering="geometricPrecision" text-rendering="geometricPrecision" viewBox="0 0 2.36 4.515"><path d="M0 0h2.36v4.515H0z"/><path fill="red" d="m.082 0 .651.638h.902L2.278 0zm0 4.514.651-.638h.902l.643.639zm2.278-.061-.638-.651v-.901l.638-.644zm0-2.196-.638-.65V.704L2.36.062z"/><path fill="#600000" d="m0 4.453.638-.651v-.901L0 2.257zm0-2.196.638-.65V.704L0 .062z"/><path fill="red" d="m.082 2.242.651.37h.902l.643-.37-.643-.371H.733zH2.13z"/></svg>