<svg xmlns="http://www.w3.org/2000/svg" xml:space="preserve" width="173.076" height="107.616" fill-rule="evenodd" clip-rule="evenodd" image-rendering="optimizeQuality" shape-rendering="geometricPrecision" text-rendering="geometricPrecision" viewBox="0 0 13.284 8.26"><path fill="gray" d="M0 0h13.284v8.26H0z"/><path fill="#fff" d="M13.284 0v8.26H0l.362-.386L12.927.394z"/><path d="M.332.382h12.621v7.496H.332z"/><path d="M9.052.679h3.607v6.902H9.052z"/><path fill="#600000" d="m9.178.68.995.975h1.378l.983-.976zm0 6.9.995-.975h1.378l.983.976zm3.482-.093-.976-.996V5.113l.976-.983zm0-3.357-.976-.995V1.757l.976-.984zM9.053 7.487l.975-.996V5.113l-.976-.983zm0-3.357.975-.995V1.757L9.052.773z"/><path fill="#600000" d="m9.178 4.106.995.566h1.378l.983-.566-.983-.567h-1.378zh3.133z"/><path d="M4.85.679h3.607v6.902H4.85z"/><path fill="#600000" d="m4.976.68.995.975H7.35l.983-.976zm0 6.9.995-.975H7.35l.983.976zm3.481-.093-.975-.996V5.113l.976-.983zm0-3.357-.975-.995V1.757l.976-.984zM4.851 7.487l.975-.996V5.113L4.85 4.13zm0-3.357.975-.995V1.757L4.85.773z"/><path fill="#600000" d="m4.976 4.106.995.566H7.35l.983-.566-.983-.567H5.971zh3.133z"/><path d="M.648.679h3.607v6.902H.648z"/><path fill="#600000" d="m.774.68.995.975h1.378L4.13.679zm0 6.9.995-.975h1.378l.983.976zm3.481-.093L3.28 6.49V5.113l.976-.983zm0-3.357-.975-.995V1.757l.976-.984zM.65 7.487l.974-.996V5.113L.65 4.13zm0-3.357.974-.995V1.757L.65.773z"/><path fill="#600000" d="m.774 4.106.995.566h1.378l.983-.566-.983-.567H1.77zh3.133z"/></svg>