<svg xmlns="http://www.w3.org/2000/svg" xml:space="preserve" width="25mm" height="25mm" fill-rule="evenodd" clip-rule="evenodd" image-rendering="optimizeQuality" shape-rendering="geometricPrecision" text-rendering="geometricPrecision" viewBox="0 0 1.224 1.224"><defs><radialGradient id="a" cx=".451" cy=".484" r=".485" fx=".451" fy=".484" gradientUnits="userSpaceOnUse"><stop offset="0" stop-color="#fff"/><stop offset=".302" stop-color="#f3f516"/><stop offset=".588" stop-color="#fcce00"/><stop offset="1" stop-color="#ff9e67"/></radialGradient></defs><path fill="#1e262e" d="M0 0h1.224v1.224H0z"/><path fill="#788088" d="M.04.04h1.144L.696.525l-.657.658z"/><path fill="#1e262e" d="M1.192.032v1.16H.032z"/><path fill="#464e56" d="M.145.145h.934v.934H.145z"/><circle cx=".612" cy=".612" r=".368" fill="none"/><circle cx=".615" cy=".605" r=".356" fill="url(#a)" opacity=".8"/><path fill-rule="nonzero" d="M.612.222a.39.39 0 0 1 .39.39.39.39 0 0 1-.39.39.39.39 0 0 1-.39-.39.39.39 0 0 1 .39-.39m0 .045a.344.344 0 0 0-.345.345.344.344 0 0 0 .345.346.344.344 0 0 0 .346-.346.344.344 0 0 0-.346-.345"/><path d="M.762.704a.05.05 0 0 1 .012.029C.774.775.704.81.615.81.528.81.457.775.457.733q0-.015.012-.03c.023.029.08.048.146.048.067 0 .123-.02.147-.047"/><circle cx=".49" cy=".526" r=".066"/><circle cx=".723" cy=".526" r=".066"/></svg>