<svg xmlns="http://www.w3.org/2000/svg" xml:space="preserve" width="25mm" height="25mm" fill-rule="evenodd" clip-rule="evenodd" image-rendering="optimizeQuality" shape-rendering="geometricPrecision" text-rendering="geometricPrecision" viewBox="0 0 .853 .853"><path fill="gray" d="M0 0h.853v.853H0z"/><path fill="#c6c6c6" d="M.052.052h.801v.801H.052z"/><path fill="#070" d="M.19.34h.154V.288H.53C.54.288.58.28.579.323v.02C.578.376.538.377.51.39.296.456.19.488.19.53v.179l.526.004L.715.608h-.37V.591C.346.58.342.566.357.56.419.537.55.493.672.453.712.435.72.389.72.343V.25C.72.206.696.177.654.18H.249C.195.183.189.233.189.26z"/></svg>