<svg xmlns="http://www.w3.org/2000/svg" xml:space="preserve" width="25mm" height="25mm" fill-rule="evenodd" clip-rule="evenodd" image-rendering="optimizeQuality" shape-rendering="geometricPrecision" text-rendering="geometricPrecision" viewBox="0 0 1.117 1.117"><defs><linearGradient id="a" x1=".314" x2=".594" y1=".367" y2=".417" gradientUnits="userSpaceOnUse"><stop offset="0" stop-color="#e70030"/><stop offset=".388" stop-color="#ff4848"/><stop offset=".62" stop-color="#ff2f2f"/><stop offset=".788" stop-color="#ff1c1c"/><stop offset=".969" stop-color="#c01515"/><stop offset="1" stop-color="#a10d0d"/></linearGradient></defs><path fill="#ccc" d="M0 0h1.117v1.117H0z"/><path fill="#fff" d="M0 0h1.117L.72.72 0 1.117z"/><path fill="gray" d="M1.117 0v1.117H0z"/><path fill="#ffa0a0" d="M.136.136h.846v.846H.136z"/><path stroke="#000" stroke-width=".003" d="M.582.513h.065v.235H.582z"/><rect width=".294" height=".119" x=".43" y=".702" rx=".037" ry=".037"/><rect width=".554" height=".143" x=".301" y=".779" rx=".04" ry=".04"/><path fill="url(#a)" d="M.653.202v.379C.59.431.328.571.254.281c0 0 .085.026.18-.02C.53.216.6.23.655.202"/></svg>