<svg xmlns="http://www.w3.org/2000/svg" xml:space="preserve" width="25mm" height="25mm" fill-rule="evenodd" clip-rule="evenodd" image-rendering="optimizeQuality" shape-rendering="geometricPrecision" text-rendering="geometricPrecision" viewBox="0 0 1.712 1.712"><defs><radialGradient id="a" cx=".631" cy=".677" r=".678" fx=".631" fy=".677" gradientUnits="userSpaceOnUse"><stop offset="0" stop-color="#fff"/><stop offset=".302" stop-color="#f3f516"/><stop offset=".588" stop-color="#fcce00"/><stop offset="1" stop-color="#ff9e67"/></radialGradient></defs><path fill="gray" d="M0 0h1.712v1.712H0z"/><path fill="#fff" d="M.055.055h1.601l-.683.68-.918.921z"/><path fill="gray" d="M1.667.045v1.622H.045z"/><path fill="#c6c6c6" d="M.203.203h1.306v1.306H.203z"/><circle cx=".856" cy=".856" r=".514" fill="none"/><circle cx=".86" cy=".846" r=".498" fill="url(#a)"/><path fill-rule="nonzero" d="M.856.31a.544.544 0 0 1 .546.546.544.544 0 0 1-.546.546.544.544 0 0 1-.545-.546.544.544 0 0 1 .545-.545m0 .063a.48.48 0 0 0-.483.483.48.48 0 0 0 .483.484.48.48 0 0 0 .484-.484.48.48 0 0 0-.484-.483"/><path d="M1.11 1.117a.14.14 0 0 0 .019-.069c0-.101-.12-.184-.268-.184s-.268.083-.268.184q0 .036.018.066C.63 1.02.735.947.86.947c.126 0 .23.074.25.17M.74.541l.03.03-.001.007-.072.071.071.071Q.772.725.77.728l-.03.03L.733.755.662.685.59.756Q.586.76.584.757l-.03-.03Q.552.725.555.721L.626.649.556.58Q.55.573.553.57l.03-.03Q.586.54.59.544l.07.071.072-.071Q.737.539.74.54m.385.001.03.03q.002.004-.001.007l-.072.071.071.071q.004.005.002.008l-.03.03-.007-.002-.071-.071-.071.071Q.97.76.969.757l-.03-.03Q.936.725.94.721l.072-.072L.94.58Q.937.573.939.57l.03-.03q.003 0 .007.004l.071.071.071-.071q.005-.004.007-.002"/></svg>