<svg xmlns="http://www.w3.org/2000/svg" xml:space="preserve" width="25mm" height="25mm" fill-rule="evenodd" clip-rule="evenodd" image-rendering="optimizeQuality" shape-rendering="geometricPrecision" text-rendering="geometricPrecision" viewBox="0 0 2.083 2.083"><defs><radialGradient id="a" cx=".884" cy=".973" r=".825" fx=".884" fy=".973" gradientUnits="userSpaceOnUse"><stop offset="0" stop-color="#fff"/><stop offset=".302" stop-color="#f3f516"/><stop offset=".588" stop-color="#fcce00"/><stop offset="1" stop-color="#ff9e67"/></radialGradient></defs><path fill="gray" d="M0 0h2.083v2.083H0z"/><path fill="gray" d="M.055.055h1.973v1.973H.055z"/><path fill="#c6c6c6" d="M.231.231h1.69v1.69H.231z"/><circle cx="1.141" cy="1.178" r=".587" fill="none"/><circle cx="1.145" cy="1.166" r=".568" fill="url(#a)"/><path fill-rule="nonzero" d="M1.141.555a.62.62 0 0 1 .623.623.62.62 0 0 1-.623.622.62.62 0 0 1-.622-.622.62.62 0 0 1 .622-.623m0 .07v.001a.55.55 0 0 0-.551.552.55.55 0 0 0 .551.551.55.55 0 0 0 .552-.551.55.55 0 0 0-.552-.552"/><path d="M1.381 1.324q.018.021.019.046c0 .068-.113.123-.253.123S.893 1.438.893 1.37q0-.024.02-.046c.037.044.128.076.234.076.105 0 .196-.032.234-.076"/><circle cx=".947" cy="1.039" r=".105"/><circle cx="1.318" cy="1.039" r=".105"/></svg>